<svg xmlns="http://www.w3.org/2000/svg" width="1024" height="1024" viewBox="0 0 1024 1024">
<g>
<path d="M 0.00 0.00 L 1024.00 0.00 L 1024.00 1024.00 L 0.00 1024.00 ZM 127.03 816.75 C126.99,818.36 545.15,818.58 559.50,816.98 C602.73,812.16 637.76,794.20 673.57,758.52 C694.28,737.89 709.58,717.80 724.63,691.49 C731.84,678.87 738.02,666.04 771.05,595.00 C782.18,571.08 793.06,547.67 795.24,543.00 C807.99,515.66 839.48,447.78 846.73,432.00 C851.41,421.83 857.01,409.67 859.19,405.00 C868.53,384.96 874.14,368.84 877.65,352.00 C880.16,339.98 880.13,314.21 877.59,304.50 C867.98,267.69 835.60,243.07 788.82,237.02 C783.00,236.26 694.80,236.02 495.20,236.22 L 209.90 236.50 L 236.20 244.74 C250.66,249.27 271.05,255.63 281.50,258.87 L 300.50 264.78 L 340.00 265.92 C376.62,266.98 425.50,268.42 512.50,271.00 C566.34,272.60 602.22,274.00 605.25,274.61 C606.76,274.91 608.00,275.74 608.00,276.46 C608.00,278.19 602.34,278.50 518.00,281.53 C479.77,282.90 423.98,284.91 394.00,286.01 C364.02,287.11 335.08,288.00 329.68,288.00 L 319.86 288.00 L 321.93 290.91 C325.70,296.20 331.96,310.39 333.87,318.00 C335.33,323.79 336.19,325.55 337.63,325.72 C338.66,325.84 363.35,326.62 392.50,327.46 C421.65,328.30 462.13,329.46 482.46,330.05 C502.79,330.64 542.39,331.00 570.46,330.84 C616.36,330.58 622.51,330.74 631.50,332.38 C662.67,338.08 678.70,349.74 682.89,369.80 C684.47,377.36 684.26,391.40 682.42,401.14 C679.83,414.77 677.87,419.30 630.51,521.00 C619.37,544.92 602.74,580.70 593.55,600.50 C569.22,652.97 565.87,659.51 557.74,670.53 C538.43,696.70 512.29,712.52 476.50,719.68 C469.88,721.01 458.36,721.36 409.66,721.71 C377.29,721.95 350.18,721.90 349.40,721.60 C348.25,721.16 348.40,720.24 350.19,716.55 C351.39,714.07 352.14,711.81 351.85,711.51 C351.56,711.22 312.66,712.34 265.41,713.99 C218.16,715.64 177.65,716.99 175.38,717.00 L 171.27 717.00 L 163.24 734.75 C158.83,744.51 155.51,752.78 155.86,753.13 C156.21,753.48 168.20,754.27 182.50,754.90 C400.79,764.43 423.18,765.51 427.25,766.65 C429.16,767.18 429.63,770.49 427.95,771.53 C427.38,771.89 401.84,773.03 371.20,774.06 C340.57,775.10 302.23,776.40 286.00,776.95 C269.77,777.49 233.55,778.65 205.50,779.53 C177.45,780.40 151.66,781.42 148.18,781.80 L 141.86 782.50 L 134.46 799.00 C130.39,808.08 127.05,816.06 127.03,816.75 ZM 401.00 448.42 C430.42,449.15 458.31,449.69 462.97,449.62 L 471.44 449.50 L 482.20 425.50 L 492.95 401.50 L 489.73 401.15 C486.72,400.83 421.13,402.81 361.50,405.03 C347.20,405.56 329.88,406.00 323.00,406.01 C316.12,406.02 309.94,406.38 309.27,406.81 C307.68,407.82 291.73,444.06 292.52,444.85 C293.19,445.52 321.49,446.45 401.00,448.42 ZM 305.50 695.41 C325.30,696.14 345.64,696.79 350.70,696.86 L 359.91 697.00 L 361.83 692.75 C362.88,690.41 366.78,681.75 370.49,673.50 C374.20,665.25 378.33,656.07 379.68,653.09 L 382.12 647.68 L 356.31 648.35 C318.33,649.34 233.91,652.01 215.62,652.81 L 199.74 653.50 L 191.51 671.50 C186.98,681.40 183.56,689.82 183.91,690.22 C184.48,690.88 202.06,691.63 305.50,695.41 ZM 330.00 631.86 C344.58,632.32 363.70,632.76 372.50,632.84 L 388.50 632.99 L 396.89 614.25 C401.50,603.94 406.35,593.09 407.67,590.14 L 410.07 584.77 L 387.79 585.43 C375.53,585.79 342.10,586.73 313.50,587.52 C284.90,588.31 253.81,589.26 244.40,589.62 L 227.30 590.29 L 219.08 608.74 C214.56,618.89 211.08,627.41 211.35,627.69 C211.62,627.96 232.47,628.82 257.67,629.61 C282.88,630.39 315.42,631.41 330.00,631.86 ZM 460.00 388.86 C480.62,389.23 497.88,389.23 498.35,388.86 C498.82,388.50 500.98,384.22 503.16,379.35 C516.64,349.24 519.02,343.68 518.59,343.25 C518.32,342.99 494.35,343.73 465.30,344.90 C436.26,346.07 394.95,347.71 373.51,348.56 C352.06,349.40 334.17,350.43 333.74,350.86 C332.16,352.44 318.23,384.53 318.85,385.17 C319.48,385.82 384.58,387.52 460.00,388.86 ZM 312.65 567.45 C352.72,568.72 392.63,569.71 401.35,569.63 L 417.20 569.50 L 425.64 550.50 C430.28,540.05 434.97,529.52 436.05,527.11 L 438.01 522.72 L 424.26 523.34 C416.69,523.68 377.20,525.12 336.50,526.53 C295.80,527.94 260.56,529.33 258.20,529.62 C254.98,530.01 253.68,530.69 253.05,532.32 C252.58,533.52 250.64,537.88 248.73,542.00 C242.16,556.22 238.85,564.18 239.33,564.66 C239.59,564.92 272.59,566.18 312.65,567.45 ZM 401.00 509.25 C406.77,509.44 418.84,509.58 427.82,509.55 L 444.14 509.50 L 454.12 487.13 C459.61,474.83 463.83,464.50 463.50,464.16 C462.65,463.31 281.74,468.86 280.86,469.76 C279.39,471.27 264.98,504.32 265.55,504.88 C265.87,505.21 294.12,506.24 328.32,507.19 C362.52,508.14 395.23,509.06 401.00,509.25 Z" fill="rgb(0,34,120)"/>
<path d="M 127.03 816.75 C127.05,816.06 130.39,808.08 134.46,799.00 L 141.86 782.50 L 148.18 781.80 C151.66,781.42 177.45,780.40 205.50,779.53 C233.55,778.65 269.77,777.49 286.00,776.95 C302.23,776.40 340.57,775.10 371.20,774.06 C401.84,773.03 427.38,771.89 427.95,771.53 C429.63,770.49 429.16,767.18 427.25,766.65 C423.18,765.51 400.79,764.43 182.50,754.90 C168.20,754.27 156.21,753.48 155.86,753.13 C155.51,752.78 158.83,744.51 163.24,734.75 L 171.27 717.00 L 175.38 717.00 C177.65,716.99 218.16,715.64 265.41,713.99 C312.66,712.34 351.56,711.22 351.85,711.51 C352.14,711.81 351.39,714.07 350.19,716.55 C348.40,720.24 348.25,721.16 349.40,721.60 C350.18,721.90 377.29,721.95 409.66,721.71 C458.36,721.36 469.88,721.01 476.50,719.68 C512.29,712.52 538.43,696.70 557.74,670.53 C565.87,659.51 569.22,652.97 593.55,600.50 C602.74,580.70 619.37,544.92 630.51,521.00 C677.87,419.30 679.83,414.77 682.42,401.14 C684.26,391.40 684.47,377.36 682.89,369.80 C678.70,349.74 662.67,338.08 631.50,332.38 C622.51,330.74 616.36,330.58 570.46,330.84 C542.39,331.00 502.79,330.64 482.46,330.05 C462.13,329.46 421.65,328.30 392.50,327.46 C363.35,326.62 338.66,325.84 337.63,325.72 C336.19,325.55 335.33,323.79 333.87,318.00 C331.96,310.39 325.70,296.20 321.93,290.91 L 319.86 288.00 L 329.68 288.00 C335.08,288.00 364.02,287.11 394.00,286.01 C423.98,284.91 479.77,282.90 518.00,281.53 C602.34,278.50 608.00,278.19 608.00,276.46 C608.00,275.74 606.76,274.91 605.25,274.61 C602.22,274.00 566.34,272.60 512.50,271.00 C425.50,268.42 376.62,266.98 340.00,265.92 L 300.50 264.78 L 281.50 258.87 C271.05,255.63 250.66,249.27 236.20,244.74 L 209.90 236.50 L 495.20 236.22 C694.80,236.02 783.00,236.26 788.82,237.02 C835.60,243.07 867.98,267.69 877.59,304.50 C880.13,314.21 880.16,339.98 877.65,352.00 C874.14,368.84 868.53,384.96 859.19,405.00 C857.01,409.67 851.41,421.83 846.73,432.00 C839.48,447.78 807.99,515.66 795.24,543.00 C793.06,547.67 782.18,571.08 771.05,595.00 C738.02,666.04 731.84,678.87 724.63,691.49 C709.58,717.80 694.28,737.89 673.57,758.52 C637.76,794.20 602.73,812.16 559.50,816.98 C545.15,818.58 126.99,818.36 127.03,816.75 ZM 305.50 695.41 C202.06,691.63 184.48,690.88 183.91,690.22 C183.56,689.82 186.98,681.40 191.51,671.50 L 199.74 653.50 L 215.62 652.81 C233.91,652.01 318.33,649.34 356.31,648.35 L 382.12 647.68 L 379.68 653.09 C378.33,656.07 374.20,665.25 370.49,673.50 C366.78,681.75 362.88,690.41 361.83,692.75 L 359.91 697.00 L 350.70 696.86 C345.64,696.79 325.30,696.14 305.50,695.41 ZM 330.00 631.86 C315.42,631.41 282.88,630.39 257.67,629.61 C232.47,628.82 211.62,627.96 211.35,627.69 C211.08,627.41 214.56,618.89 219.08,608.74 L 227.30 590.29 L 244.40 589.62 C253.81,589.26 284.90,588.31 313.50,587.52 C342.10,586.73 375.53,585.79 387.79,585.43 L 410.07 584.77 L 407.67 590.14 C406.35,593.09 401.50,603.94 396.89,614.25 L 388.50 632.99 L 372.50 632.84 C363.70,632.76 344.58,632.32 330.00,631.86 ZM 312.65 567.45 C272.59,566.18 239.59,564.92 239.33,564.66 C238.85,564.18 242.16,556.22 248.73,542.00 C250.64,537.88 252.58,533.52 253.05,532.32 C253.68,530.69 254.98,530.01 258.20,529.62 C260.56,529.33 295.80,527.94 336.50,526.53 C377.20,525.12 416.69,523.68 424.26,523.34 L 438.01 522.72 L 436.05 527.11 C434.97,529.52 430.28,540.05 425.64,550.50 L 417.20 569.50 L 401.35 569.63 C392.63,569.71 352.72,568.72 312.65,567.45 ZM 401.00 509.25 C395.23,509.06 362.52,508.14 328.32,507.19 C294.12,506.24 265.87,505.21 265.55,504.88 C264.98,504.32 279.39,471.27 280.86,469.76 C281.74,468.86 462.65,463.31 463.50,464.16 C463.83,464.50 459.61,474.83 454.12,487.13 L 444.14 509.50 L 427.82 509.55 C418.84,509.58 406.77,509.44 401.00,509.25 ZM 401.00 448.42 C321.49,446.45 293.19,445.52 292.52,444.85 C291.73,444.06 307.68,407.82 309.27,406.81 C309.94,406.38 316.12,406.02 323.00,406.01 C329.88,406.00 347.20,405.56 361.50,405.03 C421.13,402.81 486.72,400.83 489.73,401.15 L 492.95 401.50 L 482.20 425.50 L 471.44 449.50 L 462.97 449.62 C458.31,449.69 430.42,449.15 401.00,448.42 ZM 460.00 388.86 C384.58,387.52 319.48,385.82 318.85,385.17 C318.23,384.53 332.16,352.44 333.74,350.86 C334.17,350.43 352.06,349.40 373.51,348.56 C394.95,347.71 436.26,346.07 465.30,344.90 C494.35,343.73 518.32,342.99 518.59,343.25 C519.02,343.68 516.64,349.24 503.16,379.35 C500.98,384.22 498.82,388.50 498.35,388.86 C497.88,389.23 480.62,389.23 460.00,388.86 Z" fill="rgb(215,216,218)"/>
</g>
</svg>